<svg xmlns="http://www.w3.org/2000/svg" width="420" height="168" viewBox="0 0 420 168"><defs><pattern id="d" width="14" height="14" patternUnits="userSpaceOnUse"><circle cx="1" cy="1" r="1" fill="#232933"/></pattern></defs><rect x="0.5" y="0.5" width="419" height="167" rx="14" fill="#161B22" stroke="#30363D"/><rect x="300" y="1" width="119" height="166" rx="13" fill="url(#d)" opacity="0.9"/><text x="22" y="44" font-family="-apple-system, BlinkMacSystemFont, 'Segoe UI', Helvetica, Arial, sans-serif" font-size="22" font-weight="700" letter-spacing="-0.4" fill="#F0F2F5">SocraSage</text><text x="22" y="66" font-family="ui-monospace, SFMono-Regular, Menlo, Consolas, monospace" font-size="11.5" fill="#7C9BFF">ai study companion</text><g transform="translate(346 26)"><rect width="52" height="22" rx="11" fill="#3FB950" fill-opacity="0.12"/><circle cx="11" cy="11" r="3.5" fill="#3FB950"/><text x="19" y="15" font-family="-apple-system, BlinkMacSystemFont, 'Segoe UI', Helvetica, Arial, sans-serif" font-size="11.5" font-weight="600" fill="#3FB950">live</text></g><text x="22" y="96" font-family="-apple-system, BlinkMacSystemFont, 'Segoe UI', Helvetica, Arial, sans-serif" font-size="14" fill="#9BA3AE">Upload course material, then get explanations,</text><text x="22" y="116" font-family="-apple-system, BlinkMacSystemFont, 'Segoe UI', Helvetica, Arial, sans-serif" font-size="14" fill="#9BA3AE">summaries, flashcards and quizzes from it.</text><g transform="translate(22 130)"><rect width="31" height="22" rx="6" fill="#21262D"/><text x="9" y="15" font-family="ui-monospace, SFMono-Regular, Menlo, Consolas, monospace" font-size="11.5" fill="#F0F2F5">Go</text></g><g transform="translate(59 130)"><rect width="37" height="22" rx="6" fill="#21262D"/><text x="9" y="15" font-family="ui-monospace, SFMono-Regular, Menlo, Consolas, monospace" font-size="11.5" fill="#F0F2F5">AWS</text></g><g transform="translate(102 130)"><rect width="57" height="22" rx="6" fill="#21262D"/><text x="9" y="15" font-family="ui-monospace, SFMono-Regular, Menlo, Consolas, monospace" font-size="11.5" fill="#F0F2F5">OpenAI</text></g><g transform="translate(165 130)"><rect width="50" height="22" rx="6" fill="#21262D"/><text x="9" y="15" font-family="ui-monospace, SFMono-Regular, Menlo, Consolas, monospace" font-size="11.5" fill="#F0F2F5">React</text></g><path d="M386 136 l8 -8 M387 128 h7 v7" stroke="#9BA3AE" stroke-width="1.6" fill="none" stroke-linecap="round"/></svg>